<?xml version="1.0" standalone="no"?>
<!DOCTYPE svg PUBLIC "-//W3C//DTD SVG 20010904//EN"
 "http://www.w3.org/TR/2001/REC-SVG-20010904/DTD/svg10.dtd">
<svg version="1.0" xmlns="http://www.w3.org/2000/svg"
 width="200.000000pt" height="200.000000pt" viewBox="0 0 200.000000 200.000000"
 preserveAspectRatio="xMidYMid meet">

<g transform="translate(0.000000,200.000000) scale(0.100000,-0.100000)"
fill="#000000" stroke="none">
<path d="M470 1587 c0 -388 3 -416 62 -536 43 -89 134 -178 229 -225 41 -20
89 -39 107 -42 l32 -6 0 374 c0 340 2 382 20 452 24 96 85 215 146 284 l46 52
-321 0 -321 0 0 -353z"/>
<path d="M30 373 c0 -189 10 -233 56 -275 81 -72 266 -61 321 18 37 53 43 92
43 265 l0 169 -50 0 -50 0 -1 -152 c0 -184 -9 -215 -63 -242 -36 -17 -43 -18
-80 -5 -66 23 -76 53 -76 242 l0 157 -50 0 -50 0 0 -177z"/>
<path d="M550 300 l0 -250 185 0 185 0 0 50 0 49 -132 3 -133 3 -3 47 -3 47
118 3 118 3 3 47 3 47 -118 3 -118 3 0 45 0 45 133 3 132 3 0 49 0 50 -185 0
-185 0 0 -250z"/>
<path d="M1020 300 l0 -250 50 0 50 0 0 155 c0 85 3 155 8 154 4 0 34 -43 67
-94 33 -52 62 -95 65 -95 3 0 35 46 72 103 l68 102 0 -163 0 -163 53 3 52 3 0
245 0 245 -55 3 -55 2 -65 -105 c-49 -80 -67 -102 -76 -92 -6 6 -37 54 -68
105 l-58 92 -54 0 -54 0 0 -250z"/>
<path d="M1610 300 l0 -250 50 0 49 0 3 98 3 97 118 3 117 3 0 44 0 45 -120 0
-120 0 0 55 0 55 136 0 135 0 -3 48 -3 47 -182 3 -183 2 0 -250z"/>
</g>
</svg>
